<?xml version="1.0" encoding="utf-8"?>
<!-- Generator: Adobe Illustrator 16.0.0, SVG Export Plug-In . SVG Version: 6.00 Build 0)  -->
<!DOCTYPE svg PUBLIC "-//W3C//DTD SVG 1.1//EN" "http://www.w3.org/Graphics/SVG/1.1/DTD/svg11.dtd">
<svg version="1.1" id="Layer_1" xmlns="http://www.w3.org/2000/svg" xmlns:xlink="http://www.w3.org/1999/xlink" x="0px" y="0px"
	 width="610px" height="490px" viewBox="0 0 610 490" enable-background="new 0 0 610 490" xml:space="preserve">
<g>
	<path fill-rule="evenodd" clip-rule="evenodd" fill="#666666" d="M304.996,5.109c83.238,0,166.477-0.003,249.716,0.001
		c28.452,0.002,50.233,21.879,50.233,50.457c0.004,126.276,0.004,252.552,0,378.827c0,28.786-21.808,50.495-50.717,50.495
		c-166.311,0.002-332.621,0.003-498.931,0c-28.387-0.001-50.242-21.957-50.242-50.478c-0.003-126.276-0.003-252.552,0-378.828
		c0-28.8,21.787-50.474,50.725-50.474C138.852,5.107,221.924,5.109,304.996,5.109z M304.743,445.462
		c82.222,0,164.442,0.001,246.664,0c10.919,0,14.111-3.127,14.111-13.831c0.001-124.416,0.001-248.833,0-373.249
		c0-10.554-3.229-13.844-13.598-13.844c-164.609-0.002-329.218-0.002-493.828,0c-10.376,0-13.611,3.288-13.611,13.832
		c-0.001,124.416-0.001,248.832,0,373.248c0,10.721,3.183,13.845,14.098,13.845C140.635,445.463,222.689,445.462,304.743,445.462z"
		/>
	<path fill-rule="evenodd" clip-rule="evenodd" fill="#666666" d="M85.128,404.463c0-14.176,0.882-28.064-0.26-41.783
		c-1.049-12.605,3.274-21.167,12.313-29.849c28.258-27.147,55.614-55.237,83.145-83.135c3.441-3.487,5.316-3.969,9.004-0.165
		c14.847,15.317,30.078,30.26,45.155,45.33c53.226-53.227,106.344-106.347,159.773-159.779c2.226,2.022,3.591,3.165,4.848,4.418
		c40.745,40.632,81.46,81.294,122.265,121.866c2.565,2.55,3.648,5.092,3.638,8.741c-0.123,42.866-0.079,85.732-0.079,128.598
		c0,1.803,0,3.606,0,5.759C378.283,404.463,232.096,404.463,85.128,404.463z"/>
	<path fill-rule="evenodd" clip-rule="evenodd" fill="#666666" d="M204.615,144.733c0.045,33.309-26.213,59.844-59.314,59.942
		c-33.642,0.099-60.161-26.149-60.172-59.557c-0.012-33.366,26.245-59.908,59.289-59.935
		C178.125,85.158,204.569,111.317,204.615,144.733z"/>
</g>
</svg>
